<svg 
 xmlns="http://www.w3.org/2000/svg"
 xmlns:xlink="http://www.w3.org/1999/xlink"
 width="56px" height="37px">
<path fill-rule="evenodd"  fill="rgb(190, 190, 190)"
 d="M27.785,36.416 C6.838,36.416 0.262,18.416 0.262,18.416 C0.262,18.416 6.838,0.416 27.785,0.416 C48.732,0.416 55.308,18.416 55.308,18.416 C55.308,18.416 48.732,36.416 27.785,36.416 Z"/>
<path fill-rule="evenodd"  fill="rgb(255, 255, 255)"
 d="M27.781,6.416 C34.684,6.416 40.281,12.012 40.281,18.916 C40.281,25.820 34.684,31.416 27.781,31.416 C20.877,31.416 15.280,25.820 15.280,18.916 C15.280,12.012 20.877,6.416 27.781,6.416 Z"/>
<path fill-rule="evenodd"  fill="rgb(190, 190, 190)"
 d="M27.781,12.416 C31.370,12.416 34.281,15.327 34.281,18.916 C34.281,22.506 31.370,25.416 27.781,25.416 C24.191,25.416 21.280,22.506 21.280,18.916 C21.280,15.327 24.191,12.416 27.781,12.416 Z"/>
</svg>