<svg 
 xmlns="http://www.w3.org/2000/svg"
 xmlns:xlink="http://www.w3.org/1999/xlink"
 width="233px" height="44px">
<path fill-rule="evenodd"  fill="rgb(255, 255, 255)"
 d="M19.402,2.031 L23.402,2.031 C24.506,2.031 25.402,2.926 25.402,4.031 L25.402,40.031 C25.402,41.135 24.506,42.031 23.402,42.031 L19.402,42.031 C18.298,42.031 17.402,41.135 17.402,40.031 L17.402,4.031 C17.402,2.926 18.298,2.031 19.402,2.031 Z"/>
<path fill-rule="evenodd"  fill="rgb(255, 255, 255)"
 d="M2.402,19.031 L39.402,19.031 C40.507,19.031 41.402,19.926 41.402,21.031 L41.402,24.031 C41.402,25.135 40.507,26.031 39.402,26.031 L2.402,26.031 C1.297,26.031 0.402,25.135 0.402,24.031 L0.402,21.031 C0.402,19.926 1.297,19.031 2.402,19.031 Z"/>
<text font-family="Malgun Gothic" fill="rgb(254, 255, 255)" transform="matrix( 1.38082901554404, 0, 0, 1.38050734312417,62.92353238342, 35.1148197596794)" font-weight="bold" font-size="33.321px">&#46321;&#47197;&#54616;&#44592;</text>
</svg>