<svg 
 xmlns="http://www.w3.org/2000/svg"
 xmlns:xlink="http://www.w3.org/1999/xlink"
 width="42px" height="41px">
<path fill-rule="evenodd"  fill="rgb(255, 255, 255)"
 d="M19.402,0.031 L23.402,0.031 C24.506,0.031 25.402,0.926 25.402,2.031 L25.402,38.031 C25.402,39.135 24.506,40.031 23.402,40.031 L19.402,40.031 C18.298,40.031 17.402,39.135 17.402,38.031 L17.402,2.031 C17.402,0.926 18.298,0.031 19.402,0.031 Z"/>
<path fill-rule="evenodd"  fill="rgb(255, 255, 255)"
 d="M2.402,17.031 L39.402,17.031 C40.507,17.031 41.402,17.926 41.402,19.031 L41.402,22.031 C41.402,23.135 40.507,24.031 39.402,24.031 L2.402,24.031 C1.297,24.031 0.402,23.135 0.402,22.031 L0.402,19.031 C0.402,17.926 1.297,17.031 2.402,17.031 Z"/>
</svg>