<svg 
 xmlns="http://www.w3.org/2000/svg"
 xmlns:xlink="http://www.w3.org/1999/xlink"
 width="69px" height="69px">
<path fill-rule="evenodd"  fill="rgb(31, 76, 79)"
 d="M65.210,59.000 L3.788,59.000 C1.692,59.000 0.000,57.323 0.000,55.257 L0.000,16.741 C0.000,16.621 0.024,16.506 0.036,16.388 L33.486,45.195 C33.971,45.613 34.574,45.822 35.175,45.822 C35.792,45.822 36.410,45.601 36.901,45.162 L68.970,16.442 C68.979,16.543 69.000,16.638 69.000,16.741 L69.000,55.257 C69.000,57.323 67.302,59.000 65.210,59.000 ZM4.032,12.999 L65.058,12.999 L35.141,39.791 L4.032,12.999 Z"/>
<path fill-rule="evenodd"  opacity="0.129" fill="none"
 d="M-0.000,-0.000 L69.000,-0.000 L69.000,69.000 L-0.000,69.000 L-0.000,-0.000 Z"/>
</svg>