<svg 
 xmlns="http://www.w3.org/2000/svg"
 xmlns:xlink="http://www.w3.org/1999/xlink"
 width="69px" height="69px">
<defs>
<filter id="Filter_0">
    <feFlood flood-color="rgb(31, 76, 79)" flood-opacity="1" result="floodOut" />
    <feComposite operator="atop" in="floodOut" in2="SourceGraphic" result="compOut" />
    <feBlend mode="normal" in="compOut" in2="SourceGraphic" />
</filter>

</defs>
<g filter="url(#Filter_0)">
<path fill-rule="evenodd"  fill="rgb(17, 55, 58)"
 d="M57.271,17.107 C52.874,12.722 46.793,10.010 40.065,10.010 C29.735,10.010 20.922,16.401 17.403,25.420 C13.642,34.320 15.449,45.095 22.859,52.219 C26.770,55.980 31.701,58.247 36.743,58.916 L36.743,68.883 C29.155,68.224 21.744,65.065 15.850,59.409 C8.890,52.721 5.399,43.821 5.399,34.905 C5.399,30.427 6.279,25.940 8.048,21.733 C8.048,21.724 8.056,21.715 8.056,21.705 C8.056,21.696 8.067,21.687 8.067,21.687 C13.080,8.998 25.515,0.006 40.065,0.006 C49.571,0.006 58.179,3.833 64.401,10.028 L57.271,17.107 ZM31.508,41.961 L56.924,27.394 L56.924,34.508 L56.924,56.528 L56.924,69.013 L46.835,69.013 L46.835,50.746 L31.508,41.961 Z"/>
</g>
<path fill-rule="evenodd"  opacity="0.09" fill="none"
 d="M-0.000,-0.000 L69.000,-0.000 L69.000,69.000 L-0.000,69.000 L-0.000,-0.000 Z"/>
</svg>