<svg 
 xmlns="http://www.w3.org/2000/svg"
 xmlns:xlink="http://www.w3.org/1999/xlink"
 width="60px" height="60px">
<path fill-rule="evenodd"  fill="rgb(190, 190, 190)"
 d="M29.785,48.416 C8.838,48.416 2.262,30.416 2.262,30.416 C2.262,30.416 8.838,12.416 29.785,12.416 C50.732,12.416 57.308,30.416 57.308,30.416 C57.308,30.416 50.732,48.416 29.785,48.416 Z"/>
<path fill-rule="evenodd"  fill="rgb(255, 255, 255)"
 d="M29.781,18.416 C36.684,18.416 42.281,24.012 42.281,30.916 C42.281,37.820 36.684,43.416 29.781,43.416 C22.877,43.416 17.280,37.820 17.280,30.916 C17.280,24.012 22.877,18.416 29.781,18.416 Z"/>
<path fill-rule="evenodd"  fill="rgb(190, 190, 190)"
 d="M29.781,24.416 C33.370,24.416 36.281,27.327 36.281,30.916 C36.281,34.506 33.370,37.416 29.781,37.416 C26.191,37.416 23.280,34.506 23.280,30.916 C23.280,27.327 26.191,24.416 29.781,24.416 Z"/>
<path fill-rule="evenodd"  opacity="0.522" fill="none"
 d="M-0.000,-0.000 L60.000,-0.000 L60.000,60.000 L-0.000,60.000 L-0.000,-0.000 Z"/>
</svg>