<svg 
 xmlns="http://www.w3.org/2000/svg"
 xmlns:xlink="http://www.w3.org/1999/xlink"
 width="70px" height="69px">
<path fill-rule="evenodd"  fill="rgb(31, 76, 79)"
 d="M56.587,18.976 C51.989,12.453 44.580,8.208 35.811,8.208 C21.023,8.208 9.006,20.227 9.006,35.014 C9.006,49.802 21.023,60.790 35.811,60.790 C43.514,60.790 50.167,57.789 54.792,52.842 L54.797,52.999 L57.052,61.271 C51.116,66.101 43.546,69.000 35.297,69.000 C16.244,69.000 0.797,53.554 0.797,34.500 C0.797,15.446 16.244,-0.000 35.297,-0.000 C46.174,-0.000 55.869,5.038 62.193,12.903 L56.587,18.976 ZM69.796,34.463 C69.796,34.475 69.797,34.487 69.797,34.500 C69.797,34.512 69.796,34.524 69.796,34.537 L69.796,34.463 Z"/>
<path fill-rule="evenodd"  fill="rgb(31, 76, 79)"
 d="M35.704,15.000 C42.055,15.000 47.203,20.148 47.203,26.500 C47.203,32.851 42.055,38.000 35.704,38.000 C29.352,38.000 24.203,32.851 24.203,26.500 C24.203,20.148 29.352,15.000 35.704,15.000 Z"/>
<path fill-rule="evenodd"  fill="rgb(31, 76, 79)"
 d="M15.004,60.464 C15.004,60.464 12.782,40.999 34.796,40.999 C56.812,40.999 55.581,61.407 55.581,61.407 C55.581,61.407 27.491,72.468 15.004,60.464 Z"/>
<path fill-rule="evenodd"  opacity="0.09" fill="none"
 d="M1.000,-0.000 L70.000,-0.000 L70.000,69.000 L1.000,69.000 L1.000,-0.000 Z"/>
</svg>