<svg 
 xmlns="http://www.w3.org/2000/svg"
 xmlns:xlink="http://www.w3.org/1999/xlink"
 width="60px" height="60px">
<path fill-rule="evenodd"  fill="rgb(195, 212, 212)"
 d="M42.000,60.000 L42.000,42.000 L60.000,42.000 L60.000,60.000 L42.000,60.000 ZM42.000,21.000 L60.000,21.000 L60.000,39.000 L42.000,39.000 L42.000,21.000 ZM42.000,-0.000 L60.000,-0.000 L60.000,18.000 L42.000,18.000 L42.000,-0.000 ZM21.000,42.000 L39.000,42.000 L39.000,60.000 L21.000,60.000 L21.000,42.000 ZM21.000,21.000 L39.000,21.000 L39.000,39.000 L21.000,39.000 L21.000,21.000 ZM21.000,-0.000 L39.000,-0.000 L39.000,18.000 L21.000,18.000 L21.000,-0.000 ZM-0.000,42.000 L18.000,42.000 L18.000,60.000 L-0.000,60.000 L-0.000,42.000 ZM-0.000,21.000 L18.000,21.000 L18.000,39.000 L-0.000,39.000 L-0.000,21.000 ZM-0.000,-0.000 L18.000,-0.000 L18.000,18.000 L-0.000,18.000 L-0.000,-0.000 Z"/>
<path fill-rule="evenodd"  fill="none"
 d="M-0.000,-0.000 L60.000,-0.000 L60.000,60.000 L-0.000,60.000 L-0.000,-0.000 Z"/>
</svg>