<svg 
 xmlns="http://www.w3.org/2000/svg"
 xmlns:xlink="http://www.w3.org/1999/xlink"
 width="60px" height="69px">
<defs>
<filter id="Filter_0">
    <feFlood flood-color="rgb(31, 76, 79)" flood-opacity="1" result="floodOut" />
    <feComposite operator="atop" in="floodOut" in2="SourceGraphic" result="compOut" />
    <feBlend mode="normal" in="compOut" in2="SourceGraphic" />
</filter>

</defs>
<g filter="url(#Filter_0)">
<path fill-rule="evenodd"  fill="rgb(17, 55, 58)"
 d="M52.271,17.107 C47.874,12.722 41.793,10.010 35.065,10.010 C24.735,10.010 15.922,16.401 12.403,25.420 C8.642,34.320 10.449,45.095 17.859,52.219 C21.770,55.980 26.701,58.247 31.743,58.916 L31.743,68.883 C24.155,68.224 16.744,65.065 10.850,59.409 C3.890,52.721 0.399,43.821 0.399,34.905 C0.399,30.427 1.279,25.940 3.048,21.733 C3.048,21.724 3.056,21.715 3.056,21.705 C3.056,21.696 3.067,21.687 3.067,21.687 C8.080,8.998 20.515,0.006 35.065,0.006 C44.571,0.006 53.179,3.833 59.401,10.028 L52.271,17.107 ZM26.508,41.961 L51.924,27.394 L51.924,34.508 L51.924,56.528 L51.924,69.013 L41.835,69.013 L41.835,50.746 L26.508,41.961 Z"/>
</g>
</svg>