<svg xmlns="http://www.w3.org/2000/svg" width="611" height="140" viewBox="0 0 611 140">
    <defs>
        <style>
            .cls-1{fill:#f4b50b}.cls-2{fill:#11373a}
        </style>
    </defs>
    <g id="벡터_고급_개체" data-name="벡터 고급 개체" transform="translate(-218.094 -675.845)">
        <g id="그룹_48" data-name="그룹 48">
            <path id="패스_42" d="M599.361 793.807l-18.538-52.324h-19.612V814.4h13.367l-.391-58.433 20.3 58.433h9.562l20.2-58.433-.39 58.433h13.465v-72.918h-19.716z" class="cls-1" data-name="패스 42"/>
            <path id="패스_43" d="M674.208 741.483L644.936 814.4h15.807l5.173-14.288h28.49l5.27 14.288h15.9l-28.586-72.917zm-4.488 46.9l10.246-29.56 10.535 29.56z" class="cls-1" data-name="패스 43"/>
            <path id="패스_44" d="M771.591 779.518a23.992 23.992 0 0 0 3.9-13.6c0-8.079-3.221-15.47-9.172-19.806-3.9-2.857-10.343-4.63-21.564-4.63H722.9V814.4h14.538v-26.762l9.063-.066 14.062 26.83h15.221l-15.766-27.186c4.688-1.182 8.451-3.066 11.573-7.698zm-34.15-2.667v-22.46h8.49c4.1 0 8.056.45 10.69 2.126A13.33 13.33 0 0 1 762.6 767.2a9.055 9.055 0 0 1-4.109 7.508c-2.508 1.93-7.66 2.131-12.075 2.143h-8.974z" class="cls-1" data-name="패스 44"/>
            <path id="패스_45" d="M783.431 741.482v12.909h15.611V814.4h14.538v-60.01h15.514v-12.908z" class="cls-1" data-name="패스 45"/>
            <path id="패스_46" d="M442.668 741.482h-17.356V814.4h45.663v-12.908h-28.307z" class="cls-2" data-name="패스 46"/>
            <path id="패스_47" d="M524.611 754.391v-12.909h-45.664V814.4h17.312v-29.66h27.654v-12.908h-27.654v-17.441z" class="cls-2" data-name="패스 47"/>
            <path id="패스_48" d="M376.663 741.192a36.752 36.752 0 1 0 36.389 36.75 36.571 36.571 0 0 0-36.389-36.75zm0 56.831a20.083 20.083 0 1 1 19.886-20.081 19.985 19.985 0 0 1-19.886 20.082z" class="cls-2" data-name="패스 48"/>
            <path id="패스_49" d="M223.412 719.829a.066.066 0 0 0-.019.038c0 .019-.019.038-.019.057a70.027 70.027 0 0 0-5.281 26.722 69.274 69.274 0 0 0 20.843 49.714 68.054 68.054 0 0 0 41.664 19.222v-20.221a49.075 49.075 0 0 1-27.692-13.587 49.661 49.661 0 0 1-10.879-54.368 48.221 48.221 0 0 1 79.511-16.866l14.219-14.36a68.214 68.214 0 0 0-112.352 23.651z" class="cls-2" data-name="패스 49"/>
            <path id="패스_50" d="M300.732 778.785v37.06h20.118v-84.436l-50.685 29.553z" class="cls-2" data-name="패스 50"/>
        </g>
    </g>
</svg>
